<?xml version="1.0" encoding="utf-8"?>
<!-- Generator: Adobe Illustrator 25.0.1, SVG Export Plug-In . SVG Version: 6.00 Build 0)  -->
<svg version="1.1" id="Layer_1" xmlns="http://www.w3.org/2000/svg" xmlns:xlink="http://www.w3.org/1999/xlink" x="0px" y="0px"
	 viewBox="0 0 498.6 300" style="enable-background:new 0 0 498.6 300;" xml:space="preserve">
<style type="text/css">
	.st0{fill:#00061E;}
	.st1{clip-path:url(#SVGID_1_);}
	.st2{fill:#FFFFFF;fill-opacity:5.000000e-02;}
	.st3{fill:none;stroke:#FFFFFF;stroke-width:1.1799;stroke-opacity:0.1;}
	.st4{fill:#FFFFFF;fill-opacity:0.2;}
</style>
<rect class="st0" width="498.6" height="300"/>
<g>
	<defs>
		<rect id="SVGID_3_" x="193.7" y="159.3" width="280" height="151"/>
	</defs>
	<clipPath id="SVGID_1_">
		<use xlink:href="#SVGID_3_"  style="overflow:visible;"/>
	</clipPath>
	<g class="st1">
		<path class="st2" d="M439.9,173.3H227.5c-6.9,0-12.6,6.3-12.6,14v108.9c0,7.7,5.6,14,12.6,14h212.4c6.9,0,12.6-6.3,12.6-14V187.4
			C452.5,179.6,446.9,173.3,439.9,173.3z"/>
		<path class="st3" d="M439.5,174.1H227c-6.7,0-12.1,6.4-12.1,14.4v116.3c0,7.9,5.4,14.4,12.1,14.4h212.4c6.7,0,12.1-6.4,12.1-14.4
			V188.5C451.5,180.5,446.1,174.1,439.5,174.1z"/>
		<path class="st4" d="M246.3,189.5c0-4.1-4.3-7.4-9.7-7.4c-5.3,0-9.7,3.3-9.7,7.4c0,4.1,4.3,7.4,9.7,7.4
			C242,196.9,246.3,193.6,246.3,189.5z"/>
		<path class="st3" d="M245.8,189.5c0-3.9-4.1-7-9.2-7c-5.1,0-9.2,3.1-9.2,7c0,3.9,4.1,7,9.2,7C241.7,196.5,245.8,193.4,245.8,189.5
			z"/>
		<path class="st4" d="M415.3,205.7H230.9c-2.1,0-3.9,1.3-3.9,2.9s1.7,2.9,3.9,2.9h184.4c2.1,0,3.9-1.3,3.9-2.9
			S417.5,205.7,415.3,205.7z"/>
		<path class="st4" d="M297.5,186.6h-38.6c-2.1,0-3.9,1.3-3.9,2.9c0,1.6,1.7,2.9,3.9,2.9h38.6c2.1,0,3.9-1.3,3.9-2.9
			C301.4,187.9,299.6,186.6,297.5,186.6z"/>
		<path class="st4" d="M326.5,186.6H311c-2.1,0-3.9,1.3-3.9,2.9c0,1.6,1.7,2.9,3.9,2.9h15.5c2.1,0,3.9-1.3,3.9-2.9
			C330.3,187.9,328.6,186.6,326.5,186.6z"/>
		<path class="st4" d="M307.2,217.5h-76.3c-2.1,0-3.9,1.3-3.9,2.9c0,1.6,1.7,2.9,3.9,2.9h76.3c2.1,0,3.9-1.3,3.9-2.9
			C311,218.8,309.3,217.5,307.2,217.5z"/>
	</g>
</g>
</svg>
