<?xml version="1.0" encoding="utf-8"?>
<!-- Generator: Adobe Illustrator 25.0.1, SVG Export Plug-In . SVG Version: 6.00 Build 0)  -->
<svg version="1.1" id="Layer_1" xmlns="http://www.w3.org/2000/svg" xmlns:xlink="http://www.w3.org/1999/xlink" x="0px" y="0px"
	 viewBox="0 0 841.9 317.1" style="enable-background:new 0 0 841.9 317.1;" xml:space="preserve">
<style type="text/css">
	.st0{fill:url(#SVGID_1_);stroke:#231F20;stroke-width:0.7299;stroke-miterlimit:10;}
	.st1{fill:#10132E;}
	.st2{fill:#BFBFBF;}
	.st3{font-family:'Arial-Black';}
	.st4{font-size:24.2515px;}
</style>
<linearGradient id="SVGID_1_" gradientUnits="userSpaceOnUse" x1="0" y1="642.55" x2="841.9" y2="642.55" gradientTransform="matrix(1 0 0 1 0 -484)">
	<stop  offset="1.086869e-06" style="stop-color:#04071D"/>
	<stop  offset="1" style="stop-color:#0C0E23"/>
</linearGradient>
<rect y="0" class="st0" width="841.9" height="317.1"/>
<path class="st1" d="M611.5,70.3H480c-5.4,0-9.8-4.4-9.8-9.8V-1.9c0-5.4,4.4-9.8,9.8-9.8h131.4c5.4,0,9.8,4.4,9.8,9.8v62.3
	C621.3,65.9,616.9,70.3,611.5,70.3z"/>
<path class="st1" d="M611,163.1H479.5c-5.4,0-9.8-4.4-9.8-9.8V90.9c0-5.4,4.4-9.8,9.8-9.8H611c5.4,0,9.8,4.4,9.8,9.8v62.3
	C620.8,158.7,616.4,163.1,611,163.1z"/>
<path class="st1" d="M611.5,255.9H480c-5.4,0-9.8-4.4-9.8-9.8v-62.3c0-5.4,4.4-9.8,9.8-9.8h131.4c5.4,0,9.8,4.4,9.8,9.8v62.3
	C621.3,251.5,616.9,255.9,611.5,255.9z"/>
<path class="st1" d="M611.5,348.7H480c-5.4,0-9.8-4.4-9.8-9.8v-62.3c0-5.4,4.4-9.8,9.8-9.8h131.4c5.4,0,9.8,4.4,9.8,9.8v62.3
	C621.3,344.3,616.9,348.7,611.5,348.7z"/>
<path class="st1" d="M773.6,19H642.1c-5.4,0-9.8-4.4-9.8-9.8v-62.3c0-5.4,4.4-9.8,9.8-9.8h131.4c5.4,0,9.8,4.4,9.8,9.8V9.2
	C783.4,14.6,779,19,773.6,19z"/>
<path class="st1" d="M773.6,111.8H642.1c-5.4,0-9.8-4.4-9.8-9.8V39.6c0-5.4,4.4-9.8,9.8-9.8h131.4c5.4,0,9.8,4.4,9.8,9.8V102
	C783.4,107.4,779,111.8,773.6,111.8z"/>
<path class="st1" d="M773.6,204.6H642.1c-5.4,0-9.8-4.4-9.8-9.8v-62.3c0-5.4,4.4-9.8,9.8-9.8h131.4c5.4,0,9.8,4.4,9.8,9.8v62.3
	C783.4,200.2,779,204.6,773.6,204.6z"/>
<path class="st1" d="M773.6,297.4H642.1c-5.4,0-9.8-4.4-9.8-9.8v-62.3c0-5.4,4.4-9.8,9.8-9.8h131.4c5.4,0,9.8,4.4,9.8,9.8v62.3
	C783.4,293,779,297.4,773.6,297.4z"/>
<text transform="matrix(1 0 0 1 504.3701 47.0329)" class="st2 st3 st4">Tailwind</text>
<text transform="matrix(1 0 0 1 515.8652 129.9557)" class="st2 st3 st4">Vue.js</text>
<text transform="matrix(1 0 0 1 664.0566 79.6999)" class="st2 st3 st4">Express</text>
<text transform="matrix(1 0 0 1 653.9375 172.0427)" class="st2 st3 st4">MongoDB</text>
<text transform="matrix(1 0 0 1 667.8691 264.2453)" class="st2 st3 st4">MySQL</text>
<text transform="matrix(1 0 0 1 508.9375 225.1613)" class="st2 st3 st4">Laravel</text>
</svg>
